HIERARCHY
ROOT hip
{
  OFFSET 0 0 0
  CHANNELS 6 Xposition Yposition Zposition Zrotation Yrotation Xrotation
  JOINT abdomen
  {
    OFFSET 0 20.6881 -0.73152
    CHANNELS 3 Zrotation Xrotation Yrotation
    JOINT chest
    {
      OFFSET 0 11.7043 -0.48768
      CHANNELS 3 Zrotation Xrotation Yrotation
      JOINT neck
      {
        OFFSET 0 22.1894 -2.19456
        CHANNELS 3 Zrotation Xrotation Yrotation
        JOINT head
        {
          OFFSET -0.24384 7.07133 1.2192
          CHANNELS 3 Zrotation Xrotation Yrotation
          JOINT leftEye
          {
            OFFSET 4.14528 8.04674 8.04672
            CHANNELS 3 Zrotation Xrotation Yrotation
            End Site
            {
              OFFSET 1 0 0
            }
          }
          JOINT rightEye
          {
            OFFSET -3.6576 8.04674 8.04672
            CHANNELS 3 Zrotation Xrotation Yrotation
            End Site
            {
              OFFSET 1 0 0
            }
          }
        }
      }
      JOINT rCollar
      {
        OFFSET -2.68224 19.2634 -4.8768
        CHANNELS 3 Zrotation Xrotation Yrotation
        JOINT rShldr
        {
          OFFSET -8.77824 -1.95073 1.46304
          CHANNELS 3 Zrotation Xrotation Yrotation
          JOINT rForeArm
          {
            OFFSET -28.1742 -1.7115 0.48768
            CHANNELS 3 Zrotation Xrotation Yrotation
            JOINT rHand
            {
              OFFSET -22.5879 0.773209 7.07136
              CHANNELS 3 Zrotation Xrotation Yrotation
              JOINT rThumb1
              {
                OFFSET -1.2192 -0.487915 3.41376
                CHANNELS 3 Zrotation Xrotation Yrotation
                JOINT rThumb2
                {
                  OFFSET -3.37035 -0.52449 3.41376
                  CHANNELS 3 Zrotation Xrotation Yrotation
                  End Site
                  {
                    OFFSET -1.78271 -1.18214 1.43049
                  }
                }
              }
              JOINT rIndex1
              {
                OFFSET -7.75947 0.938293 5.60832
                CHANNELS 3 Zrotation Xrotation Yrotation
                JOINT rIndex2
                {
                  OFFSET -2.54057 -0.884171 1.56538
                  CHANNELS 3 Zrotation Xrotation Yrotation
                  End Site
                  {
                    OFFSET -1.62519 -0.234802 1.16502
                  }
                }
              }
              JOINT rMid1
              {
                OFFSET -8.24714 1.18213 3.41376
                CHANNELS 3 Zrotation Xrotation Yrotation
                JOINT rMid2
                {
                  OFFSET -3.10165 -0.590103 1.0647
                  CHANNELS 3 Zrotation Xrotation Yrotation
                  End Site
                  {
                    OFFSET -2.48547 -0.328903 0.83742
                  }
                }
              }
              JOINT rRing1
              {
                OFFSET -8.82822 0.546677 1.51678
                CHANNELS 3 Zrotation Xrotation Yrotation
                JOINT rRing2
                {
                  OFFSET -2.60934 -0.819778 -0.0198488
                  CHANNELS 3 Zrotation Xrotation Yrotation
                  End Site
                  {
                    OFFSET -2.33842 -0.294052 0.168128
                  }
                }
              }
              JOINT rPinky1
              {
                OFFSET -8.27202 -0.0477905 -0.4584
                CHANNELS 3 Zrotation Xrotation Yrotation
                JOINT rPinky2
                {
                  OFFSET -1.82734 -0.647385 -0.700984
                  CHANNELS 3 Zrotation Xrotation Yrotation
                  End Site
                  {
                    OFFSET -1.69225 -0.51767 -0.607171
                  }
                }
              }
            }
          }
        }
      }
      JOINT lCollar
      {
        OFFSET 2.68224 19.2634 -4.8768
        CHANNELS 3 Zrotation Xrotation Yrotation
        JOINT lShldr
        {
          OFFSET 8.77824 -1.95073 1.46304
          CHANNELS 3 Zrotation Xrotation Yrotation
          JOINT lForeArm
          {
            OFFSET 28.1742 -1.7115 0.48768
            CHANNELS 3 Zrotation Xrotation Yrotation
            JOINT lHand
            {
              OFFSET 22.5879 0.773209 7.07136
              CHANNELS 3 Zrotation Xrotation Yrotation
              JOINT lThumb1
              {
                OFFSET 1.2192 -0.487915 3.41376
                CHANNELS 3 Zrotation Xrotation Yrotation
                JOINT lThumb2
                {
                  OFFSET 3.37035 -0.52449 3.41376
                  CHANNELS 3 Zrotation Xrotation Yrotation
                  End Site
                  {
                    OFFSET 1.78271 -1.18214 1.43049
                  }
                }
              }
              JOINT lIndex1
              {
                OFFSET 7.75947 0.938293 5.60832
                CHANNELS 3 Zrotation Xrotation Yrotation
                JOINT lIndex2
                {
                  OFFSET 2.54057 -0.884171 1.56538
                  CHANNELS 3 Zrotation Xrotation Yrotation
                  End Site
                  {
                    OFFSET 1.62519 -0.234802 1.16502
                  }
                }
              }
              JOINT lMid1
              {
                OFFSET 8.24714 1.18213 3.41376
                CHANNELS 3 Zrotation Xrotation Yrotation
                JOINT lMid2
                {
                  OFFSET 3.10165 -0.590103 1.0647
                  CHANNELS 3 Zrotation Xrotation Yrotation
                  End Site
                  {
                    OFFSET 2.48547 -0.328903 0.83742
                  }
                }
              }
              JOINT lRing1
              {
                OFFSET 8.82822 0.546677 1.51678
                CHANNELS 3 Zrotation Xrotation Yrotation
                JOINT lRing2
                {
                  OFFSET 2.60934 -0.819778 -0.0198488
                  CHANNELS 3 Zrotation Xrotation Yrotation
                  End Site
                  {
                    OFFSET 2.33842 -0.294052 0.168128
                  }
                }
              }
              JOINT lPinky1
              {
                OFFSET 8.27202 -0.0477905 -0.4584
                CHANNELS 3 Zrotation Xrotation Yrotation
                JOINT lPinky2
                {
                  OFFSET 1.82734 -0.647385 -0.700984
                  CHANNELS 3 Zrotation Xrotation Yrotation
                  End Site
                  {
                    OFFSET 1.69225 -0.51767 -0.607171
                  }
                }
              }
            }
          }
        }
      }
    }
  }
  JOINT rButtock
  {
    OFFSET -8.77824 4.35084 1.2192
    CHANNELS 3 Zrotation Xrotation Yrotation
    JOINT rThigh
    {
      OFFSET 0 -1.70687 -2.19456
      CHANNELS 3 Zrotation Xrotation Yrotation
      JOINT rShin
      {
        OFFSET 0 -36.8199 0.73152
        CHANNELS 3 Zrotation Xrotation Yrotation
        JOINT rFoot
        {
          OFFSET 0.73152 -45.1104 -5.12064
          CHANNELS 3 Zrotation Xrotation Yrotation
          End Site
          {
            OFFSET -1.1221 -3.69964 12.103
          }
        }
      }
    }
  }
  JOINT lButtock
  {
    OFFSET 8.77824 4.35084 1.2192
    CHANNELS 3 Zrotation Xrotation Yrotation
    JOINT lThigh
    {
      OFFSET 0 -1.70687 -2.19456
      CHANNELS 3 Zrotation Xrotation Yrotation
      JOINT lShin
      {
        OFFSET 0 -36.8199 0.73152
        CHANNELS 3 Zrotation Xrotation Yrotation
        JOINT lFoot
        {
          OFFSET -0.73152 -45.1104 -5.12064
          CHANNELS 3 Zrotation Xrotation Yrotation
          End Site
          {
            OFFSET 1.1221 -3.69964 12.103
          }
        }
      }
    }
  }
}
MOTION
Frames:	7
Frame Time:	0.00833333
-2.82565 76.1342 6.29697 -4.8968 -0.618 13.5416 3.54806 -3.94395 -7.15671 4.11545 -7.5797 -1.81933 3.26937 6.80714 1.60955 -9.35912 -9.48264 1.82663 -0.0 0.0 0.0 -0.0 0.0 0.0 -8.3257e-15 -2.12301e-13 3.03644e-14 -5.92582 -43.3268 -4.42303 -24.6383 -20.3404 51.6968 -1.71554 34.4422 5.5309 -2.56703e-10 7.43979e-11 -1.76451e-10 -4.47545e-10 1.29344e-10 -2.98661e-10 -2.56698e-10 7.43932e-11 -1.7646e-10 7.73091 5.47488 0.417314 -2.56702e-10 7.4393e-11 -1.76454e-10 2.90554 0.965183 0.102902 -2.56694e-10 7.43933e-11 -1.76452e-10 10.2786 0.731801 0.0259123 -2.56706e-10 7.43976e-11 -1.76454e-10 2.22167 -0.733487 -0.20892 -8.47214e-15 -2.12304e-13 3.00662e-14 157.926 67.1104 155.278 28.3598 -33.6126 -73.0667 0.499191 -19.6677 2.87927 4.952e-10 4.21746e-10 -6.67885e-11 8.54497e-10 7.31334e-10 -1.07262e-10 4.95194e-10 4.2175e-10 -6.6763e-11 -7.73091 5.47488 -0.417314 4.952e-10 4.21746e-10 -6.67853e-11 -2.90554 0.965183 -0.102902 4.95192e-10 4.21746e-10 -6.67909e-11 -10.2786 0.731801 -0.0259123 4.95208e-10 4.21748e-10 -6.6798e-11 -2.22167 -0.733487 0.20892 -2.03217e-16 0.0 -3.88251e-19 -1.88069 -39.048 -14.6667 -0.563778 48.5767 0.879737 3.20611 -12.0701 12.2424 2.03217e-16 0.0 3.88251e-19 19.0188 -38.1613 15.5417 0.661593 51.9741 -1.10841 -0.922879 -20.1412 -3.19903
-2.83717 76.1897 6.30629 -4.9237 -0.5176 13.5071 3.60528 -4.11188 -7.28537 4.38736 -7.53056 -1.8433 3.40147 6.84687 1.65035 -9.74414 -9.37967 1.86357 -0.0 0.0 0.0 -0.0 0.0 0.0 -1.11851e-13 -3.85702e-13 6.90097e-14 -5.66748 -43.5427 -3.96395 -24.6095 -20.2821 51.5984 -1.72439 34.5176 5.54655 7.10316e-10 -2.30147e-10 -3.21266e-10 1.21587e-09 -3.97066e-10 -5.73168e-10 7.10321e-10 -2.30151e-10 -3.21276e-10 7.73091 5.47488 0.417314 7.10317e-10 -2.30152e-10 -3.21268e-10 2.90554 0.965183 0.102902 7.10325e-10 -2.30151e-10 -3.21267e-10 10.2786 0.731801 0.0259123 7.10313e-10 -2.30147e-10 -3.21268e-10 2.22167 -0.733487 -0.20892 -1.12006e-13 -3.85704e-13 6.87434e-14 157.779 67.0635 154.845 28.3404 -33.3352 -72.6048 0.495994 -19.6078 2.86976 1.06007e-09 7.61314e-10 -2.37785e-10 1.83165e-09 1.32035e-09 -3.92554e-10 1.06006e-09 7.61317e-10 -2.37764e-10 -7.73091 5.47488 -0.417314 1.06007e-09 7.61314e-10 -2.37784e-10 -2.90554 0.965183 -0.102902 1.06006e-09 7.61313e-10 -2.37789e-10 -10.2786 0.731801 -0.0259123 1.06007e-09 7.61316e-10 -2.37795e-10 -2.22167 -0.733487 0.20892 -2.03217e-16 0.0 -3.88251e-19 -1.80934 -38.8953 -14.6959 -0.555632 48.3258 0.871662 3.1554 -12.0371 12.1098 2.03217e-16 0.0 3.88251e-19 18.9143 -38.0998 15.2885 0.653841 51.7684 -1.09983 -0.885053 -20.0586 -3.12178
-2.8571 76.2666 6.29315 -5.0021 -0.3384 13.578 3.65704 -4.31706 -7.44333 4.67838 -7.43561 -1.87631 3.54815 6.90189 1.69038 -10.1698 -9.32232 1.89159 -0.0 0.0 0.0 -0.0 0.0 0.0 -2.5992e-13 -6.02636e-13 1.16006e-13 -5.32371 -43.8061 -3.40366 -24.5676 -20.1975 51.4569 -1.73702 34.6243 5.56878 2.00255e-09 -6.28646e-10 -5.62014e-10 3.43707e-09 -1.0849e-09 -1.02133e-09 2.00255e-09 -6.28647e-10 -5.62025e-10 7.73091 5.47488 0.417314 2.00255e-09 -6.2865e-10 -5.62014e-10 2.90554 0.965183 0.102902 2.00255e-09 -6.28649e-10 -5.62015e-10 10.2786 0.731801 0.0259123 2.00254e-09 -6.28645e-10 -5.62013e-10 2.22167 -0.733487 -0.20892 -2.60099e-13 -6.02638e-13 1.1577e-13 157.739 67.0588 154.242 28.3119 -33.0028 -72.0659 0.492575 -19.5434 2.85956 1.78222e-09 1.23453e-09 -3.84688e-10 3.07991e-09 2.14104e-09 -6.32965e-10 1.78221e-09 1.23453e-09 -3.84675e-10 -7.73091 5.47488 -0.417314 1.78222e-09 1.23453e-09 -3.84689e-10 -2.90554 0.965183 -0.102902 1.78221e-09 1.23453e-09 -3.84693e-10 -10.2786 0.731801 -0.0259123 1.78222e-09 1.23453e-09 -3.84697e-10 -2.22167 -0.733487 0.20892 -2.03217e-16 0.0 -3.88251e-19 -1.74758 -38.7683 -14.7376 -0.547744 48.0811 0.864051 3.09765 -12.0133 11.9469 2.03217e-16 0.0 3.88251e-19 18.8078 -38.0797 15.0278 0.646783 51.5779 -1.0919 -0.848216 -19.9743 -3.04634
-2.86697 76.3402 6.28805 -5.0482 -0.1518 13.6422 3.7263 -4.55505 -7.61331 4.98039 -7.32075 -1.91377 3.67126 6.97574 1.72433 -10.6186 -9.2941 1.90832 -0.0 0.0 0.0 -0.0 0.0 0.0 -3.852e-13 -7.84276e-13 1.54361e-13 -4.95176 -44.0884 -2.8062 -24.5215 -20.105 51.3032 -1.75233 34.753 5.59567 3.07649e-09 -9.58964e-10 -7.88895e-10 5.28218e-09 -1.65492e-09 -1.43997e-09 3.07649e-09 -9.58963e-10 -7.88907e-10 7.73091 5.47488 0.417314 3.07649e-09 -9.58966e-10 -7.88893e-10 2.90554 0.965183 0.102902 3.0765e-09 -9.58965e-10 -7.88896e-10 10.2786 0.731801 0.0259123 3.07649e-09 -9.58962e-10 -7.88891e-10 2.22167 -0.733487 -0.20892 -3.85404e-13 -7.84276e-13 1.54149e-13 157.707 67.0654 153.6 28.2758 -32.6417 -71.4879 0.489991 -19.4945 2.85181 2.42924e-09 1.65411e-09 -4.70923e-10 4.19767e-09 2.8687e-09 -7.69834e-10 2.42923e-09 1.65411e-09 -4.70918e-10 -7.73091 5.47488 -0.417314 2.42924e-09 1.65411e-09 -4.70926e-10 -2.90554 0.965183 -0.102902 2.42923e-09 1.65411e-09 -4.70928e-10 -10.2786 0.731801 -0.0259123 2.42924e-09 1.65411e-09 -4.7093e-10 -2.22167 -0.733487 0.20892 -2.03217e-16 0.0 -3.88251e-19 -1.6918 -38.6527 -14.7938 -0.5398 47.8317 0.856393 3.03949 -11.9923 11.7803 2.03217e-16 0.0 3.88251e-19 18.7102 -38.0807 14.7779 0.639982 51.3908 -1.08394 -0.821444 -19.8871 -2.9947
-2.8581 76.4325 6.30891 -5.0244 -0.0604 13.6535 3.8363 -4.82145 -7.77801 5.2852 -7.21186 -1.95114 3.73266 7.07195 1.74689 -11.0731 -9.27853 1.91139 -0.0 0.0 0.0 -0.0 0.0 0.0 -4.2036e-13 -8.51793e-13 1.67079e-13 -4.61184 -44.3623 -2.23768 -24.4807 -20.0234 51.1679 -1.76922 34.8943 5.62528 3.38865e-09 -1.05897e-09 -8.92111e-10 5.81732e-09 -1.82786e-09 -1.62588e-09 3.38865e-09 -1.05897e-09 -8.92123e-10 7.73091 5.47488 0.417314 3.38865e-09 -1.05897e-09 -8.92107e-10 2.90554 0.965183 0.102902 3.38865e-09 -1.05897e-09 -8.92111e-10 10.2786 0.731801 0.0259123 3.38864e-09 -1.05897e-09 -8.92104e-10 2.22167 -0.733487 -0.20892 -4.20576e-13 -8.51793e-13 1.6688e-13 157.583 67.0548 153.054 28.2359 -32.2803 -70.9056 0.48928 -19.4811 2.84969 2.76872e-09 1.83275e-09 -4.59915e-10 4.78329e-09 3.17864e-09 -7.44503e-10 2.76871e-09 1.83275e-09 -4.59915e-10 -7.73091 5.47488 -0.417314 2.76872e-09 1.83275e-09 -4.59918e-10 -2.90554 0.965183 -0.102902 2.76871e-09 1.83275e-09 -4.59919e-10 -10.2786 0.731801 -0.0259123 2.76872e-09 1.83275e-09 -4.59921e-10 -2.22167 -0.733487 0.20892 -2.03217e-16 0.0 -3.88251e-19 -1.63834 -38.5346 -14.8661 -0.531507 47.5665 0.848197 2.98757 -11.9679 11.6365 2.03217e-16 0.0 3.88251e-19 18.6329 -38.0827 14.5574 0.633024 51.1956 -1.07529 -0.813672 -19.796 -2.98877
-2.86035 76.5106 6.31385 -5.0716 0.0242 13.7523 3.9934 -5.13614 -7.93534 5.61143 -7.11337 -1.98693 3.71055 7.20861 1.75581 -11.554 -9.28 1.89852 -0.0 0.0 0.0 -0.0 0.0 0.0 -3.11835e-13 -7.47617e-13 1.39331e-13 -4.31661 -44.6306 -1.6879 -24.4456 -19.9537 51.0513 -1.78859 35.0554 5.65913 2.48102e-09 -7.90142e-10 -8.20461e-10 4.2542e-09 -1.36488e-09 -1.47915e-09 2.48102e-09 -7.90142e-10 -8.20474e-10 7.73091 5.47488 0.417314 2.48102e-09 -7.90143e-10 -8.20458e-10 2.90554 0.965183 0.102902 2.48102e-09 -7.90142e-10 -8.20461e-10 10.2786 0.731801 0.0259123 2.48101e-09 -7.9014e-10 -8.20454e-10 2.22167 -0.733487 -0.20892 -3.12046e-13 -7.47615e-13 1.39128e-13 157.41 67.0294 152.532 28.1922 -31.9094 -70.2987 0.49002 -19.4941 2.85176 2.68615e-09 1.67135e-09 -2.79983e-10 4.63806e-09 2.89909e-09 -4.35298e-10 2.68614e-09 1.67135e-09 -2.79983e-10 -7.73091 5.47488 -0.417314 2.68615e-09 1.67135e-09 -2.79984e-10 -2.90554 0.965183 -0.102902 2.68614e-09 1.67135e-09 -2.79985e-10 -10.2786 0.731801 -0.0259123 2.68615e-09 1.67135e-09 -2.79987e-10 -2.22167 -0.733487 0.20892 -2.03217e-16 0.0 -3.88251e-19 -1.58253 -38.4225 -14.9582 -0.522883 47.2847 0.839363 2.94686 -11.939 11.5326 2.03217e-16 0.0 3.88251e-19 18.5972 -38.0899 14.3934 0.626112 50.9958 -1.06581 -0.838209 -19.7001 -3.0611
-2.852 76.5704 6.32501 -5.1415 0.1621 13.8597 4.18453 -5.49436 -8.09389 5.95654 -7.0123 -2.02367 3.62921 7.37814 1.75419 -12.0622 -9.30438 1.87154 -0.0 0.0 0.0 -0.0 0.0 0.0 -1.07405e-13 -5.25972e-13 8.36138e-14 -4.03453 -44.9044 -1.13043 -24.4119 -19.8872 50.9397 -1.81078 35.238 5.6977 7.47824e-10 -2.70719e-10 -6.39813e-10 1.27064e-09 -4.69708e-10 -1.12339e-09 7.47833e-10 -2.70721e-10 -6.39825e-10 7.73091 5.47488 0.417314 7.47824e-10 -2.7072e-10 -6.39811e-10 2.90554 0.965183 0.102902 7.47827e-10 -2.70719e-10 -6.39812e-10 10.2786 0.731801 0.0259123 7.47817e-10 -2.70717e-10 -6.39805e-10 2.22167 -0.733487 -0.20892 -1.076e-13 -5.25969e-13 8.33933e-14 157.217 67.0013 151.997 28.1408 -31.5166 -69.6605 0.491885 -19.5276 2.85711 2.32299e-09 1.28618e-09 2.87238e-11 4.00671e-09 2.23161e-09 9.11512e-11 2.32298e-09 1.28618e-09 2.87254e-11 -7.73091 5.47488 -0.417314 2.32299e-09 1.28618e-09 2.87258e-11 -2.90554 0.965183 -0.102902 2.32298e-09 1.28618e-09 2.87242e-11 -10.2786 0.731801 -0.0259123 2.32299e-09 1.28618e-09 2.87226e-11 -2.22167 -0.733487 0.20892 -2.03217e-16 0.0 -3.88251e-19 -1.52742 -38.3198 -15.0678 -0.514079 46.9916 0.830166 2.91269 -11.9089 11.4513 2.03217e-16 0.0 3.88251e-19 18.5907 -38.11 14.2685 0.619377 50.7953 -1.05587 -0.886151 -19.6003 -3.19095
